<svg xmlns="http://www.w3.org/2000/svg" id="canvas" viewBox="481.266 234.742 470.033 266.809"><path d="M 494.86,382.00 C 493.87 384.48, 494.87 388.09, 494.76 394.45 C 494.65 400.82, 494.63 405.35, 494.30 413.82 C 493.97 422.29, 493.76 428.23, 493.11 436.81 C 492.47 445.40, 491.99 450.09, 491.07 456.74 C 490.16 463.39, 488.90 466.40, 488.54 470.06 C 488.18 473.73, 488.65 474.84, 489.27 475.08 C 489.89 475.31, 491.25 474.66, 491.64 471.24 C 492.02 467.82, 491.01 464.59, 491.19 457.98 C 491.36 451.36, 491.44 446.47, 492.52 438.17 C 493.60 429.86, 494.41 424.76, 496.60 416.45 C 498.79 408.14, 500.31 403.72, 503.47 396.62 C 506.63 389.51, 508.52 386.21, 512.40 380.92 C 516.28 375.63, 518.43 373.57, 522.85 370.17 C 527.27 366.77, 529.60 365.69, 534.50 363.92 C 539.39 362.15, 541.96 361.77, 547.31 361.31 C 552.67 360.85, 555.58 361.11, 561.28 361.61 C 566.99 362.11, 570.04 362.79, 575.85 363.80 C 581.67 364.82, 584.62 365.59, 590.36 366.67 C 596.10 367.75, 598.99 368.40, 604.55 369.20 C 610.11 370.00, 612.94 370.34, 618.15 370.67 C 623.36 370.99, 625.94 370.98, 630.58 370.83 C 635.23 370.67, 637.58 370.67, 641.40 369.89 C 645.22 369.11, 647.40 368.89, 649.69 366.95 C 651.98 365.01, 652.95 362.94, 652.86 360.18 C 652.78 357.41, 651.93 354.73, 649.27 353.13 C 646.62 351.53, 644.07 351.38, 639.58 352.18 C 635.09 352.99, 632.33 354.17, 626.84 357.15 C 621.35 360.13, 617.99 362.20, 612.15 367.08 C 606.31 371.96, 602.87 375.32, 597.65 381.55 C 592.43 387.77, 589.73 391.75, 586.04 398.21 C 582.35 404.67, 580.79 408.19, 579.20 413.85 C 577.62 419.51, 577.09 422.29, 578.13 426.52 C 579.17 430.75, 580.92 433.24, 584.42 434.98 C 587.91 436.72, 590.91 436.49, 595.61 435.23 C 600.30 433.98, 602.88 432.27, 607.89 428.70 C 612.91 425.13, 615.59 422.49, 620.68 417.40 C 625.77 412.30, 628.60 408.85, 633.36 403.22 C 638.13 397.60, 640.81 393.76, 644.49 389.27 C 648.17 384.79, 650.39 382.89, 651.77 380.78 C 653.16 378.67, 651.72 377.83, 651.40 378.72 C 651.09 379.61, 650.45 381.25, 650.21 385.23 C 649.98 389.21, 649.88 392.90, 650.24 398.62 C 650.59 404.33, 650.76 408.14, 651.97 413.80 C 653.19 419.47, 653.81 422.54, 656.32 426.94 C 658.83 431.34, 660.48 433.57, 664.53 435.80 C 668.59 438.03, 671.40 438.60, 676.59 438.07 C 681.78 437.55, 684.61 436.47, 690.47 433.17 C 696.32 429.87, 699.47 427.53, 705.88 421.57 C 712.29 415.61, 715.77 411.86, 722.52 403.37 C 729.26 394.88, 732.95 389.72, 739.61 379.14 C 746.27 368.57, 749.80 362.31, 755.80 350.48 C 761.80 338.64, 764.82 331.86, 769.62 319.97 C 774.43 308.07, 776.65 301.63, 779.84 290.99 C 783.04 280.34, 784.20 275.08, 785.60 266.74 C 786.99 258.40, 787.44 254.84, 786.81 249.30 C 786.19 243.77, 785.38 240.96, 782.49 239.06 C 779.61 237.16, 776.31 237.23, 772.39 239.82 C 768.48 242.40, 766.75 245.11, 762.92 251.98 C 759.10 258.85, 757.01 263.50, 753.26 274.17 C 749.51 284.84, 747.47 291.72, 744.17 305.33 C 740.87 318.94, 739.26 327.16, 736.76 342.23 C 734.25 357.30, 733.28 365.75, 731.66 380.69 C 730.03 395.64, 729.60 403.46, 728.64 416.96 C 727.67 430.47, 727.48 437.11, 726.84 448.24 C 726.20 459.37, 726.13 464.66, 725.42 472.61 C 724.72 480.56, 724.00 483.44, 723.32 487.97 C 722.65 492.51, 721.99 493.45, 722.04 495.29 C 722.09 497.13, 723.16 497.06, 723.59 497.19 C 724.02 497.31, 724.47 495.97, 724.18 495.94 C 723.88 495.91, 722.11 496.52, 722.10 497.04 C 722.10 497.56, 723.08 498.67, 724.15 498.54 C 725.21 498.41, 726.60 498.37, 727.42 496.36 C 728.24 494.35, 727.96 493.20, 728.25 488.49 C 728.55 483.78, 728.64 480.85, 728.91 472.82 C 729.17 464.80, 729.16 459.51, 729.58 448.37 C 730.01 437.23, 730.15 430.61, 731.02 417.13 C 731.89 403.64, 732.31 395.84, 733.93 380.94 C 735.55 366.04, 736.53 357.62, 739.11 342.63 C 741.69 327.64, 743.34 319.45, 746.83 306.00 C 750.32 292.55, 752.52 285.72, 756.54 275.39 C 760.57 265.05, 763.09 260.54, 766.93 254.33 C 770.78 248.12, 773.26 246.56, 775.77 244.34 C 778.29 242.12, 778.21 242.14, 779.51 243.23 C 780.81 244.33, 781.76 245.22, 782.29 249.81 C 782.81 254.41, 783.18 258.15, 782.13 266.22 C 781.08 274.29, 780.05 279.62, 777.05 290.17 C 774.05 300.72, 771.88 307.15, 767.15 318.97 C 762.42 330.79, 759.42 337.54, 753.42 349.26 C 747.42 360.99, 743.87 367.19, 737.16 377.59 C 730.46 387.98, 726.70 393.06, 719.89 401.23 C 713.08 409.41, 709.48 413.00, 703.10 418.46 C 696.73 423.93, 693.43 425.87, 688.02 428.58 C 682.61 431.28, 680.10 431.67, 676.04 431.98 C 671.98 432.29, 670.52 431.76, 667.73 430.13 C 664.93 428.50, 663.86 427.33, 662.05 423.81 C 660.24 420.29, 659.52 417.63, 658.69 412.53 C 657.86 407.42, 658.04 403.81, 657.91 398.29 C 657.79 392.76, 658.63 389.30, 658.05 384.90 C 657.46 380.50, 657.15 378.10, 654.99 376.27 C 652.83 374.45, 650.27 373.90, 647.25 375.78 C 644.22 377.66, 643.44 380.84, 639.86 385.67 C 636.29 390.49, 633.97 394.33, 629.38 399.90 C 624.80 405.47, 621.92 408.81, 616.92 413.54 C 611.92 418.26, 609.03 420.55, 604.39 423.53 C 599.75 426.51, 597.13 427.44, 593.72 428.43 C 590.30 429.43, 589.20 429.20, 587.31 428.53 C 585.42 427.86, 584.84 427.74, 584.25 425.07 C 583.67 422.41, 583.20 420.11, 584.38 415.21 C 585.57 410.30, 586.82 406.66, 590.19 400.54 C 593.56 394.41, 596.18 390.45, 601.22 384.58 C 606.26 378.70, 609.71 375.46, 615.40 371.16 C 621.09 366.87, 624.56 365.15, 629.67 363.12 C 634.77 361.09, 637.54 361.38, 640.91 361.00 C 644.28 360.62, 645.17 361.45, 646.52 361.21 C 647.88 360.98, 647.92 360.19, 647.68 359.83 C 647.44 359.47, 646.96 359.07, 645.30 359.43 C 643.65 359.79, 642.46 360.76, 639.41 361.64 C 636.35 362.53, 634.22 363.29, 630.02 363.85 C 625.82 364.41, 623.34 364.54, 618.40 364.46 C 613.45 364.38, 610.72 364.12, 605.31 363.46 C 599.91 362.80, 597.08 362.20, 591.37 361.17 C 585.67 360.14, 582.73 359.35, 576.80 358.32 C 570.88 357.30, 567.76 356.55, 561.76 356.04 C 555.76 355.54, 552.62 355.22, 546.80 355.81 C 540.97 356.40, 538.02 356.88, 532.63 358.99 C 527.24 361.11, 524.60 362.51, 519.84 366.38 C 515.08 370.26, 512.87 372.65, 508.84 378.36 C 504.81 384.08, 502.97 387.56, 499.71 394.95 C 496.45 402.35, 494.96 406.85, 492.56 415.34 C 490.15 423.84, 489.15 428.97, 487.67 437.42 C 486.18 445.88, 485.73 450.77, 485.13 457.63 C 484.53 464.49, 483.78 467.92, 484.69 471.74 C 485.60 475.56, 487.73 476.80, 489.67 476.72 C 491.61 476.63, 493.13 475.20, 494.39 471.32 C 495.65 467.43, 495.30 464.14, 495.95 457.30 C 496.59 450.47, 497.04 445.80, 497.63 437.14 C 498.21 428.48, 498.51 422.53, 498.89 414.01 C 499.27 405.49, 499.36 400.95, 499.53 394.56 C 499.69 388.16, 500.64 384.56, 499.71 382.05 C 498.77 379.54, 495.85 379.52, 494.86 382.00" style="stroke: white; fill: white;"/><path d="M 698.33,410.89 C 699.72 411.74, 700.71 411.66, 704.11 411.09 C 707.50 410.51, 709.58 409.20, 715.32 408.01 C 721.06 406.82, 724.94 406.23, 732.82 405.14 C 740.69 404.04, 745.62 403.65, 754.69 402.54 C 763.75 401.44, 768.82 400.91, 778.13 399.61 C 787.45 398.31, 792.42 397.59, 801.25 396.04 C 810.09 394.50, 814.58 393.66, 822.30 391.88 C 830.01 390.09, 833.76 389.11, 839.83 387.11 C 845.90 385.10, 848.87 384.41, 852.63 381.86 C 856.39 379.32, 858.10 377.62, 858.63 374.36 C 859.16 371.10, 858.23 367.90, 855.27 365.56 C 852.32 363.23, 849.28 362.94, 843.85 362.70 C 838.42 362.46, 834.78 362.82, 828.12 364.37 C 821.46 365.92, 817.31 367.32, 810.55 370.43 C 803.79 373.54, 799.97 375.83, 794.31 379.92 C 788.66 384.01, 785.83 386.44, 782.28 390.88 C 778.74 395.32, 777.05 397.87, 776.59 402.11 C 776.13 406.36, 777.12 409.40, 779.98 412.13 C 782.84 414.85, 785.80 415.40, 790.90 415.72 C 796.00 416.04, 799.22 415.37, 805.47 413.74 C 811.71 412.11, 815.42 410.53, 822.12 407.56 C 828.82 404.59, 832.64 402.38, 838.97 398.88 C 845.29 395.38, 848.80 392.87, 853.75 390.05 C 858.70 387.24, 861.27 386.14, 863.71 384.81 C 866.15 383.48, 865.79 382.79, 865.97 383.42 C 866.15 384.05, 865.00 384.96, 864.60 387.95 C 864.19 390.94, 863.95 393.75, 863.94 398.39 C 863.93 403.03, 863.82 406.28, 864.56 411.15 C 865.30 416.02, 866.10 418.76, 867.64 422.74 C 869.18 426.72, 870.15 428.86, 872.26 431.05 C 874.37 433.24, 876.47 433.70, 878.18 433.71 C 879.90 433.72, 880.63 432.62, 880.84 431.10 C 881.05 429.58, 880.30 428.41, 879.23 426.11 C 878.16 423.82, 876.79 422.87, 875.49 419.65 C 874.20 416.42, 873.29 414.23, 872.75 410.00 C 872.22 405.77, 872.70 402.98, 872.81 398.50 C 872.93 394.02, 873.99 391.34, 873.31 387.60 C 872.63 383.85, 871.83 381.61, 869.42 379.78 C 867.00 377.96, 864.97 377.40, 861.24 378.47 C 857.52 379.54, 855.73 381.96, 850.78 385.15 C 845.82 388.34, 842.61 390.91, 836.46 394.42 C 830.31 397.93, 826.52 400.02, 820.04 402.70 C 813.56 405.38, 809.80 406.60, 804.06 407.83 C 798.31 409.06, 795.20 409.07, 791.31 408.86 C 787.42 408.65, 786.26 407.94, 784.62 406.77 C 782.97 405.59, 782.65 405.46, 783.09 402.99 C 783.53 400.52, 783.96 398.19, 786.82 394.42 C 789.67 390.64, 792.20 387.94, 797.38 384.10 C 802.55 380.27, 806.30 377.99, 812.69 375.23 C 819.08 372.47, 823.20 371.36, 829.33 370.29 C 835.47 369.23, 839.01 369.49, 843.38 369.90 C 847.75 370.30, 849.22 371.66, 851.17 372.31 C 853.12 372.96, 853.50 372.26, 853.11 373.15 C 852.73 374.03, 852.24 374.83, 849.25 376.72 C 846.26 378.60, 843.76 380.31, 838.17 382.56 C 832.59 384.80, 828.84 385.98, 821.33 387.94 C 813.81 389.91, 809.34 390.79, 800.60 392.38 C 791.86 393.98, 786.90 394.70, 777.63 395.92 C 768.36 397.14, 763.32 397.63, 754.25 398.48 C 745.18 399.34, 740.26 399.55, 732.27 400.20 C 724.29 400.85, 720.32 401.06, 714.33 401.72 C 708.34 402.37, 705.76 402.44, 702.32 403.46 C 698.89 404.49, 697.95 405.35, 697.15 406.83 C 696.35 408.32, 696.94 410.04, 698.33 410.89" style="stroke: white; fill: white;"/><path d="M 941.07,439.68 C 939.91 440.97, 939.56 441.85, 939.90 442.05 C 940.24 442.24, 941.44 441.55, 942.76 440.65 C 944.08 439.74, 945.40 438.67, 946.50 437.51 C 947.60 436.34, 948.44 435.20, 948.28 434.82 C 948.12 434.44, 947.15 434.62, 945.71 435.59 C 944.26 436.56, 942.23 438.39, 941.07 439.68" style="stroke: white; fill: white;"/></svg>
